<?xml version="1.0" encoding="UTF-8"?>
<svg version="1.1" xmlns="http://www.w3.org/2000/svg" width="250" height="250">
<path d="M0 0 C0.70920593 -0.01139008 1.41841187 -0.02278015 2.14910889 -0.03451538 C9.5770472 -0.14526644 17.00598019 -0.19261877 24.43457031 -0.23535156 C27.95590137 -0.25759941 31.47616799 -0.29932399 34.99707031 -0.35839844 C39.25296599 -0.42966178 43.50786252 -0.46620925 47.76432419 -0.47846985 C49.38224823 -0.48884315 51.00014373 -0.51120286 52.61772537 -0.54606628 C66.85405294 -0.83694715 66.85405294 -0.83694715 71.88183594 3.4987793 C72.98990674 4.7113375 74.06981861 5.95083121 75.10693359 7.22460938 C75.92162109 7.99135986 76.73630859 8.75811035 77.57568359 9.5480957 C79.75796031 11.70597918 81.93587643 13.86793355 84.10693359 16.03710938 C84.88166016 16.79958984 85.65638672 17.56207031 86.45458984 18.34765625 C87.18548828 19.07662109 87.91638672 19.80558594 88.66943359 20.55664062 C89.33072266 21.2138208 89.99201172 21.87100098 90.67333984 22.5480957 C92.10693359 24.22460938 92.10693359 24.22460938 92.10693359 26.22460938 C92.74630859 26.49273437 93.38568359 26.76085937 94.04443359 27.03710938 C96.10693359 28.22460938 96.10693359 28.22460938 97.10693359 31.22460938 C98.42736602 31.91647673 99.76314383 32.579279 101.10693359 33.22460938 C102.50963765 34.456837 103.86488622 35.74419658 105.18115234 37.06835938 C105.93074219 37.81988281 106.68033203 38.57140625 107.45263672 39.34570312 C108.61182617 40.52326172 108.61182617 40.52326172 109.79443359 41.72460938 C110.57882813 42.50964844 111.36322266 43.2946875 112.17138672 44.10351562 C117.47347462 49.44684708 119.22457139 51.37081283 119.28393555 59.07348633 C119.29050674 59.77775757 119.29707794 60.48202881 119.30384827 61.2076416 C119.3235891 63.54272566 119.33524574 65.87774537 119.34521484 68.21289062 C119.34929037 69.01019278 119.3533659 69.80749493 119.35756493 70.62895775 C119.37842935 74.84923418 119.39272924 79.06947806 119.40209961 83.28979492 C119.41316294 87.64793455 119.44756043 92.00556343 119.48727131 96.36352253 C119.51342343 99.71529588 119.52179018 103.0669473 119.52538109 106.41881371 C119.53025098 108.0251733 119.54187653 109.6315273 119.56041908 111.23778725 C119.5847812 113.48811867 119.58385162 115.73712577 119.5769043 117.98754883 C119.58277054 119.26725052 119.58863678 120.54695221 119.59468079 121.86543274 C119.02309619 125.80200816 117.82641367 127.38862277 115.10693359 130.22460938 C114.57068359 130.82273438 114.03443359 131.42085937 113.48193359 132.03710938 C112.10693359 133.22460938 112.10693359 133.22460938 110.10693359 133.22460938 C109.77693359 134.21460938 109.44693359 135.20460937 109.10693359 136.22460938 C108.44693359 136.22460938 107.78693359 136.22460938 107.10693359 136.22460938 C107.10693359 136.88460937 107.10693359 137.54460937 107.10693359 138.22460938 C105.44478092 139.5635657 103.77729752 140.8959108 102.10693359 142.22460938 C101.44693359 143.04960937 100.78693359 143.87460938 100.10693359 144.72460938 C98.01225814 147.3429537 95.73602901 149.16396703 93.10693359 151.22460938 C92.77693359 151.88460937 92.44693359 152.54460937 92.10693359 153.22460938 C91.44693359 153.22460938 90.78693359 153.22460938 90.10693359 153.22460938 C90.10693359 153.88460937 90.10693359 154.54460937 90.10693359 155.22460938 C88.44478092 156.5635657 86.77729752 157.8959108 85.10693359 159.22460938 C84.44693359 160.04960937 83.78693359 160.87460938 83.10693359 161.72460938 C81.01225814 164.3429537 78.73602901 166.16396703 76.10693359 168.22460938 C75.77693359 168.88460937 75.44693359 169.54460937 75.10693359 170.22460938 C74.44693359 170.22460938 73.78693359 170.22460938 73.10693359 170.22460938 C72.77693359 171.21460938 72.44693359 172.20460937 72.10693359 173.22460938 C71.44693359 173.22460938 70.78693359 173.22460938 70.10693359 173.22460938 C70.10693359 173.88460937 70.10693359 174.54460937 70.10693359 175.22460938 C66.38226562 177.70772135 64.47102807 177.477947 60.02099609 177.48339844 C58.94492096 177.4886554 58.94492096 177.4886554 57.84710693 177.49401855 C55.47528411 177.50282255 53.10375946 177.49699152 50.73193359 177.49023438 C49.08430931 177.49158141 47.43668542 177.49352226 45.7890625 177.49603271 C42.33573625 177.49898217 38.88251345 177.4946921 35.42919922 177.48535156 C31.00041469 177.4739571 26.57187256 177.48051753 22.14309692 177.49249649 C18.74078542 177.49971992 15.33853149 177.49742494 11.93621826 177.49224091 C10.30312064 177.49090575 8.67001781 177.49254746 7.03692627 177.49720001 C4.75543349 177.50227321 2.47433451 177.49454409 0.19287109 177.48339844 C-1.10602051 177.48180725 -2.40491211 177.48021606 -3.74316406 177.47857666 C-6.89306641 177.22460938 -6.89306641 177.22460938 -9.89306641 175.22460938 C-9.89306641 174.56460938 -9.89306641 173.90460938 -9.89306641 173.22460938 C-10.88306641 172.89460937 -11.87306641 172.56460938 -12.89306641 172.22460938 C-12.89306641 171.56460938 -12.89306641 170.90460938 -12.89306641 170.22460938 C-13.55306641 170.22460938 -14.21306641 170.22460938 -14.89306641 170.22460938 C-16.23202273 168.5624567 -17.56436783 166.8949733 -18.89306641 165.22460938 C-19.71806641 164.56460938 -20.54306641 163.90460938 -21.39306641 163.22460938 C-24.01141073 161.12993392 -25.83242406 158.85370479 -27.89306641 156.22460938 C-28.55306641 155.89460937 -29.21306641 155.56460938 -29.89306641 155.22460938 C-29.89306641 154.56460938 -29.89306641 153.90460938 -29.89306641 153.22460938 C-30.55306641 153.22460938 -31.21306641 153.22460938 -31.89306641 153.22460938 C-33.23202273 151.5624567 -34.56436783 149.8949733 -35.89306641 148.22460938 C-36.71806641 147.56460938 -37.54306641 146.90460938 -38.39306641 146.22460938 C-41.01141073 144.12993392 -42.83242406 141.85370479 -44.89306641 139.22460938 C-45.55306641 138.89460937 -46.21306641 138.56460938 -46.89306641 138.22460938 C-46.89306641 137.56460938 -46.89306641 136.90460938 -46.89306641 136.22460938 C-47.88306641 135.89460937 -48.87306641 135.56460938 -49.89306641 135.22460938 C-49.89306641 134.56460938 -49.89306641 133.90460938 -49.89306641 133.22460938 C-50.55306641 133.22460938 -51.21306641 133.22460938 -51.89306641 133.22460938 C-53.26380426 131.58856742 -54.59361897 129.91782877 -55.89306641 128.22460938 C-56.68540176 127.61289131 -56.68540176 127.61289131 -57.4937439 126.98881531 C-59.67439972 124.23953778 -59.30521618 121.77115786 -59.34472656 118.30981445 C-59.35640869 117.61021606 -59.36809082 116.91061768 -59.38012695 116.18981934 C-59.41374704 113.87445398 -59.42445503 111.5597287 -59.43212891 109.24414062 C-59.44431161 107.63091304 -59.4567977 106.01768772 -59.46957397 104.40446472 C-59.49206374 101.01918468 -59.50160504 97.63412986 -59.50390625 94.2487793 C-59.50917626 89.92514488 -59.56041646 85.60340406 -59.62342262 81.28027821 C-59.66444051 77.94547793 -59.6735496 74.61112807 -59.67402267 71.27609825 C-59.67938683 69.68333648 -59.69616427 68.09056847 -59.72487259 66.49805641 C-59.95608061 52.4994249 -59.95608061 52.4994249 -55.55981445 47.41088867 C-54.36420859 46.31888966 -53.14212793 45.25503673 -51.89306641 44.22460938 C-50.72911712 43.02745123 -49.57513546 41.82043535 -48.43603516 40.59960938 C-47.32013304 39.47204278 -46.20166165 38.34701278 -45.08056641 37.22460938 C-44.22301758 36.34869141 -44.22301758 36.34869141 -43.34814453 35.45507812 C-41.9026196 34.00445734 -40.40206173 32.60908621 -38.89306641 31.22460938 C-38.23306641 31.22460938 -37.57306641 31.22460938 -36.89306641 31.22460938 C-36.62494141 30.58523437 -36.35681641 29.94585937 -36.08056641 29.28710938 C-34.89306641 27.22460938 -34.89306641 27.22460938 -31.89306641 26.22460938 C-31.21672361 24.89615816 -30.55210893 23.56172761 -29.89306641 22.22460938 C-28.37072856 20.52808498 -26.78997266 18.88329684 -25.17431641 17.27539062 C-24.24232422 16.34533203 -23.31033203 15.41527344 -22.35009766 14.45703125 C-21.86492676 13.97806396 -21.37975586 13.49909668 -20.87988281 13.00561523 C-19.39277686 11.5368234 -17.91388683 10.06012833 -16.43603516 8.58203125 C-7.91729405 0.11631135 -7.91729405 0.11631135 0 0 Z " fill="#FBFAF9" transform="translate(94.89306640625,31.775390625)"/>
<path d="M0 0 C0.70920593 -0.01139008 1.41841187 -0.02278015 2.14910889 -0.03451538 C9.5770472 -0.14526644 17.00598019 -0.19261877 24.43457031 -0.23535156 C27.95590137 -0.25759941 31.47616799 -0.29932399 34.99707031 -0.35839844 C39.25296599 -0.42966178 43.50786252 -0.46620925 47.76432419 -0.47846985 C49.38224823 -0.48884315 51.00014373 -0.51120286 52.61772537 -0.54606628 C66.85405294 -0.83694715 66.85405294 -0.83694715 71.88183594 3.4987793 C72.98990674 4.7113375 74.06981861 5.95083121 75.10693359 7.22460938 C75.92162109 7.99135986 76.73630859 8.75811035 77.57568359 9.5480957 C79.75796031 11.70597918 81.93587643 13.86793355 84.10693359 16.03710938 C84.88166016 16.79958984 85.65638672 17.56207031 86.45458984 18.34765625 C87.18548828 19.07662109 87.91638672 19.80558594 88.66943359 20.55664062 C89.33072266 21.2138208 89.99201172 21.87100098 90.67333984 22.5480957 C92.10693359 24.22460938 92.10693359 24.22460938 92.10693359 26.22460938 C92.74630859 26.49273437 93.38568359 26.76085937 94.04443359 27.03710938 C96.10693359 28.22460938 96.10693359 28.22460938 97.10693359 31.22460938 C98.42736602 31.91647673 99.76314383 32.579279 101.10693359 33.22460938 C102.50963765 34.456837 103.86488622 35.74419658 105.18115234 37.06835938 C105.93074219 37.81988281 106.68033203 38.57140625 107.45263672 39.34570312 C108.61182617 40.52326172 108.61182617 40.52326172 109.79443359 41.72460938 C110.57882813 42.50964844 111.36322266 43.2946875 112.17138672 44.10351562 C117.47347462 49.44684708 119.22457139 51.37081283 119.28393555 59.07348633 C119.29050674 59.77775757 119.29707794 60.48202881 119.30384827 61.2076416 C119.3235891 63.54272566 119.33524574 65.87774537 119.34521484 68.21289062 C119.34929037 69.01019278 119.3533659 69.80749493 119.35756493 70.62895775 C119.37842935 74.84923418 119.39272924 79.06947806 119.40209961 83.28979492 C119.41316294 87.64793455 119.44756043 92.00556343 119.48727131 96.36352253 C119.51342343 99.71529588 119.52179018 103.0669473 119.52538109 106.41881371 C119.53025098 108.0251733 119.54187653 109.6315273 119.56041908 111.23778725 C119.5847812 113.48811867 119.58385162 115.73712577 119.5769043 117.98754883 C119.58277054 119.26725052 119.58863678 120.54695221 119.59468079 121.86543274 C119.02309619 125.80200816 117.82641367 127.38862277 115.10693359 130.22460938 C114.57068359 130.82273438 114.03443359 131.42085937 113.48193359 132.03710938 C112.10693359 133.22460938 112.10693359 133.22460938 110.10693359 133.22460938 C109.77693359 134.21460938 109.44693359 135.20460937 109.10693359 136.22460938 C108.44693359 136.22460938 107.78693359 136.22460938 107.10693359 136.22460938 C107.10693359 136.88460937 107.10693359 137.54460937 107.10693359 138.22460938 C105.44478092 139.5635657 103.77729752 140.8959108 102.10693359 142.22460938 C101.44693359 143.04960937 100.78693359 143.87460938 100.10693359 144.72460938 C98.01225814 147.3429537 95.73602901 149.16396703 93.10693359 151.22460938 C92.77693359 151.88460937 92.44693359 152.54460937 92.10693359 153.22460938 C91.44693359 153.22460938 90.78693359 153.22460938 90.10693359 153.22460938 C90.10693359 153.88460937 90.10693359 154.54460937 90.10693359 155.22460938 C88.44478092 156.5635657 86.77729752 157.8959108 85.10693359 159.22460938 C84.44693359 160.04960937 83.78693359 160.87460938 83.10693359 161.72460938 C81.01225814 164.3429537 78.73602901 166.16396703 76.10693359 168.22460938 C75.77693359 168.88460937 75.44693359 169.54460937 75.10693359 170.22460938 C74.44693359 170.22460938 73.78693359 170.22460938 73.10693359 170.22460938 C72.77693359 171.21460938 72.44693359 172.20460937 72.10693359 173.22460938 C71.44693359 173.22460938 70.78693359 173.22460938 70.10693359 173.22460938 C70.10693359 173.88460937 70.10693359 174.54460937 70.10693359 175.22460938 C66.38226562 177.70772135 64.47102807 177.477947 60.02099609 177.48339844 C58.94492096 177.4886554 58.94492096 177.4886554 57.84710693 177.49401855 C55.47528411 177.50282255 53.10375946 177.49699152 50.73193359 177.49023438 C49.08430931 177.49158141 47.43668542 177.49352226 45.7890625 177.49603271 C42.33573625 177.49898217 38.88251345 177.4946921 35.42919922 177.48535156 C31.00041469 177.4739571 26.57187256 177.48051753 22.14309692 177.49249649 C18.74078542 177.49971992 15.33853149 177.49742494 11.93621826 177.49224091 C10.30312064 177.49090575 8.67001781 177.49254746 7.03692627 177.49720001 C4.75543349 177.50227321 2.47433451 177.49454409 0.19287109 177.48339844 C-1.10602051 177.48180725 -2.40491211 177.48021606 -3.74316406 177.47857666 C-6.89306641 177.22460938 -6.89306641 177.22460938 -9.89306641 175.22460938 C-9.89306641 174.56460938 -9.89306641 173.90460938 -9.89306641 173.22460938 C-10.88306641 172.89460937 -11.87306641 172.56460938 -12.89306641 172.22460938 C-12.89306641 171.56460938 -12.89306641 170.90460938 -12.89306641 170.22460938 C-13.55306641 170.22460938 -14.21306641 170.22460938 -14.89306641 170.22460938 C-16.23202273 168.5624567 -17.56436783 166.8949733 -18.89306641 165.22460938 C-19.71806641 164.56460938 -20.54306641 163.90460938 -21.39306641 163.22460938 C-24.01141073 161.12993392 -25.83242406 158.85370479 -27.89306641 156.22460938 C-28.55306641 155.89460937 -29.21306641 155.56460938 -29.89306641 155.22460938 C-29.89306641 154.56460938 -29.89306641 153.90460938 -29.89306641 153.22460938 C-30.55306641 153.22460938 -31.21306641 153.22460938 -31.89306641 153.22460938 C-33.23202273 151.5624567 -34.56436783 149.8949733 -35.89306641 148.22460938 C-36.71806641 147.56460938 -37.54306641 146.90460938 -38.39306641 146.22460938 C-41.01141073 144.12993392 -42.83242406 141.85370479 -44.89306641 139.22460938 C-45.55306641 138.89460937 -46.21306641 138.56460938 -46.89306641 138.22460938 C-46.89306641 137.56460938 -46.89306641 136.90460938 -46.89306641 136.22460938 C-47.88306641 135.89460937 -48.87306641 135.56460938 -49.89306641 135.22460938 C-49.89306641 134.56460938 -49.89306641 133.90460938 -49.89306641 133.22460938 C-50.55306641 133.22460938 -51.21306641 133.22460938 -51.89306641 133.22460938 C-53.26380426 131.58856742 -54.59361897 129.91782877 -55.89306641 128.22460938 C-56.68540176 127.61289131 -56.68540176 127.61289131 -57.4937439 126.98881531 C-59.67439972 124.23953778 -59.30521618 121.77115786 -59.34472656 118.30981445 C-59.35640869 117.61021606 -59.36809082 116.91061768 -59.38012695 116.18981934 C-59.41374704 113.87445398 -59.42445503 111.5597287 -59.43212891 109.24414062 C-59.44431161 107.63091304 -59.4567977 106.01768772 -59.46957397 104.40446472 C-59.49206374 101.01918468 -59.50160504 97.63412986 -59.50390625 94.2487793 C-59.50917626 89.92514488 -59.56041646 85.60340406 -59.62342262 81.28027821 C-59.66444051 77.94547793 -59.6735496 74.61112807 -59.67402267 71.27609825 C-59.67938683 69.68333648 -59.69616427 68.09056847 -59.72487259 66.49805641 C-59.95608061 52.4994249 -59.95608061 52.4994249 -55.55981445 47.41088867 C-54.36420859 46.31888966 -53.14212793 45.25503673 -51.89306641 44.22460938 C-50.72911712 43.02745123 -49.57513546 41.82043535 -48.43603516 40.59960938 C-47.32013304 39.47204278 -46.20166165 38.34701278 -45.08056641 37.22460938 C-44.22301758 36.34869141 -44.22301758 36.34869141 -43.34814453 35.45507812 C-41.9026196 34.00445734 -40.40206173 32.60908621 -38.89306641 31.22460938 C-38.23306641 31.22460938 -37.57306641 31.22460938 -36.89306641 31.22460938 C-36.62494141 30.58523437 -36.35681641 29.94585937 -36.08056641 29.28710938 C-34.89306641 27.22460938 -34.89306641 27.22460938 -31.89306641 26.22460938 C-31.21672361 24.89615816 -30.55210893 23.56172761 -29.89306641 22.22460938 C-28.37072856 20.52808498 -26.78997266 18.88329684 -25.17431641 17.27539062 C-24.24232422 16.34533203 -23.31033203 15.41527344 -22.35009766 14.45703125 C-21.86492676 13.97806396 -21.37975586 13.49909668 -20.87988281 13.00561523 C-19.39277686 11.5368234 -17.91388683 10.06012833 -16.43603516 8.58203125 C-7.91729405 0.11631135 -7.91729405 0.11631135 0 0 Z M-4.89306641 7.22460938 C-7.60837198 10.90474434 -8.94516477 14.91803014 -10.39306641 19.22460938 C-11.8632139 23.59735578 -13.48331177 27.301753 -15.89306641 31.22460938 C-15.89306641 31.88460937 -15.89306641 32.54460937 -15.89306641 33.22460938 C-15.32716797 33.49015625 -14.76126953 33.75570312 -14.17822266 34.02929688 C-13.44474609 34.3825 -12.71126953 34.73570313 -11.95556641 35.09960938 C-11.22466797 35.44765625 -10.49376953 35.79570313 -9.74072266 36.15429688 C-7.89306641 37.22460938 -7.89306641 37.22460938 -6.89306641 39.22460938 C-6.30813903 44.02101386 -5.88991716 47.90797599 -8.89306641 51.84960938 C-12.73036183 53.60836978 -15.74866036 54.18745118 -19.89306641 53.22460938 C-23.37168087 50.70816487 -24.68494708 49.27684 -25.52197266 45.04492188 C-25.64443359 44.11421875 -25.76689453 43.18351562 -25.89306641 42.22460938 C-26.78767578 42.69511719 -27.68228516 43.165625 -28.60400391 43.65039062 C-34.95900399 46.93979929 -41.01082667 49.89438798 -48.00244141 51.61914062 C-50.10805199 52.13442386 -50.10805199 52.13442386 -51.89306641 54.22460938 C-52.44851915 58.44747445 -51.32125199 60.67427091 -49.01806641 64.16210938 C-45.26961789 70.12434749 -43.73383097 75.21823801 -42.89306641 82.22460938 C-41.90306641 81.72960937 -41.90306641 81.72960937 -40.89306641 81.22460938 C-36.38784993 79.72287055 -32.12418024 79.52004711 -27.51806641 80.97460938 C-25.37860947 82.62034548 -24.66831294 83.61696196 -23.89306641 86.22460938 C-23.97008327 90.46053705 -24.51008503 92.67915105 -26.95556641 96.16210938 C-30.26987308 98.48917576 -31.91100552 98.7565781 -35.83056641 98.69335938 C-38.55961942 98.07312005 -40.56496141 96.74434458 -42.89306641 95.22460938 C-43.04001953 96.04703125 -43.18697266 96.86945313 -43.33837891 97.71679688 C-44.75035547 104.74422045 -46.54810573 110.12617377 -50.68603516 116.00585938 C-52.14310141 118.68422065 -52.34693224 120.21835827 -51.89306641 123.22460938 C-49.68555048 126.55887822 -46.62249974 127.05544363 -42.89306641 128.03710938 C-36.32781405 129.93079047 -30.73175765 132.71437416 -24.89306641 136.22460938 C-24.52181641 134.96648437 -24.15056641 133.70835937 -23.76806641 132.41210938 C-22.53409542 129.14469325 -22.01808772 128.31629167 -19.08056641 126.16210938 C-14.6000305 124.8443047 -11.77490695 125.35997994 -7.58056641 127.28710938 C-4.99927345 130.25081611 -4.86348177 133.44517228 -4.89306641 137.22460938 C-5.26806641 140.03710938 -5.26806641 140.03710938 -6.89306641 142.22460938 C-9.81651529 143.54763004 -12.78625126 144.43831665 -15.89306641 145.22460938 C-15.50634766 145.86785156 -15.11962891 146.51109375 -14.72119141 147.17382812 C-11.08663058 153.48033094 -8.65694085 159.54733566 -6.75244141 166.57226562 C-6.07634482 169.3444823 -6.07634482 169.3444823 -3.89306641 171.22460938 C-0.96708258 171.55332813 -0.96708258 171.55332813 2.51269531 171.53100586 C3.49835983 171.54349113 3.49835983 171.54349113 4.50393677 171.55622864 C6.68155806 171.58037226 8.85888005 171.58910611 11.03662109 171.59570312 C12.54875785 171.60466667 14.06089368 171.61378846 15.57302856 171.62306213 C18.74564776 171.63956687 21.91816124 171.64725483 25.09082031 171.65014648 C29.15555024 171.65552983 33.21928608 171.69319978 37.28373528 171.73889065 C40.40816875 171.76864137 43.53236238 171.7758696 46.6569252 171.77687263 C48.15527013 171.78107952 49.65361548 171.79353284 51.15182114 171.81439018 C53.24941662 171.84126507 55.34470279 171.83649411 57.44238281 171.82397461 C58.63548065 171.82904526 59.82857849 171.83411591 61.05783081 171.83934021 C64.27533766 171.47849551 64.27533766 171.47849551 66.46487427 168.9176178 C68.16187611 166.1345026 68.81173286 163.65791566 69.47021484 160.48632812 C70.49400732 156.84966652 72.30597991 153.64488706 74.08349609 150.32617188 C75.25287723 148.31450989 75.25287723 148.31450989 75.10693359 146.22460938 C75.76693359 146.22460938 76.42693359 146.22460938 77.10693359 146.22460938 C77.10693359 145.56460938 77.10693359 144.90460938 77.10693359 144.22460938 C75.21974609 143.85335937 75.21974609 143.85335937 73.29443359 143.47460938 C70.65331033 142.79212442 69.24900709 142.34004409 67.10693359 140.59960938 C65.634148 137.10174358 65.34896455 133.90513216 66.10693359 130.22460938 C68.10693359 127.22460938 68.10693359 127.22460938 71.10693359 125.22460938 C75.03502499 124.6011028 77.40679982 124.32690943 80.91943359 126.18164062 C84.46781462 128.86851568 85.48253604 130.95430424 86.10693359 135.22460938 C87.00154297 134.75410156 87.89615234 134.28359375 88.81787109 133.79882812 C95.17287118 130.50941946 101.22469385 127.55483077 108.21630859 125.83007812 C110.32191918 125.31479489 110.32191918 125.31479489 112.10693359 123.22460938 C112.63857603 119.08194107 111.65155388 117.07389951 109.29443359 113.72460938 C105.57653208 107.90604956 104.31000523 101.95758926 103.10693359 95.22460938 C102.36572266 95.71445313 101.62451172 96.20429687 100.86083984 96.70898438 C96.91231804 98.88207155 94.57559424 98.50833386 90.10693359 98.22460938 C89.32318359 98.18335938 88.53943359 98.14210938 87.73193359 98.09960938 C86.10693359 97.22460938 86.10693359 97.22460938 84.79443359 94.59960938 C84.01196488 90.7583993 84.24404712 88.03569131 85.10693359 84.22460938 C87.10693359 81.22460938 87.10693359 81.22460938 90.10693359 80.22460938 C95.53649669 79.87431498 98.6069634 79.84963173 103.10693359 83.22460938 C103.18169922 82.56976563 103.25646484 81.91492188 103.33349609 81.24023438 C104.39817198 73.85013113 106.63213652 64.69940645 112.10693359 59.22460938 C112.35701089 56.76650939 112.35701089 56.76650939 112.10693359 54.22460938 C109.5797074 51.69738318 107.61024924 51.40743454 104.16943359 50.47460938 C97.59730711 48.54249201 91.96107403 45.74413268 86.10693359 42.22460938 C85.83429688 43.16433594 85.83429688 43.16433594 85.55615234 44.12304688 C85.17910156 45.34894531 85.17910156 45.34894531 84.79443359 46.59960938 C84.55080078 47.41171875 84.30716797 48.22382812 84.05615234 49.06054688 C83.10693359 51.22460938 83.10693359 51.22460938 80.10693359 53.22460938 C75.27995191 53.76959118 73.21100991 53.93765866 69.10693359 51.28710938 C66.43457442 47.1950594 66.15256051 43.98755543 67.10693359 39.22460938 C69.70881687 35.32178447 72.76474551 34.59864423 77.10693359 33.22460938 C76.63642578 32.33 76.16591797 31.43539062 75.68115234 30.51367188 C72.39174368 24.15867179 69.43715499 18.10684911 67.71240234 11.11523438 C67.19711911 9.00962379 67.19711911 9.00962379 65.10693359 7.22460938 C60.96327258 6.51715506 58.57837424 7.37364437 55.10693359 9.47460938 C49.19507925 13.03389046 42.73900452 14.53593129 36.10693359 16.22460938 C36.83589844 17.33642578 36.83589844 17.33642578 37.57958984 18.47070312 C39.8132127 22.49807938 39.61427863 24.65850402 39.10693359 29.22460938 C37.23678265 31.6558056 35.82555014 32.8653011 33.10693359 34.22460938 C26.1299515 34.78726922 26.1299515 34.78726922 22.60693359 32.84960938 C20.30547539 28.82205752 20.48183225 24.76022841 21.10693359 20.22460938 C22.13037109 17.91210938 22.13037109 17.91210938 23.10693359 16.22460938 C22.42888672 16.06605469 21.75083984 15.9075 21.05224609 15.74414062 C5.80379126 11.92146705 5.80379126 11.92146705 1.10693359 7.22460938 C-1.8084467 6.72418791 -1.8084467 6.72418791 -4.89306641 7.22460938 Z " fill="#F4BD0B" transform="translate(94.89306640625,31.775390625)"/>
<path d="M0 0 C3.13893957 1.83328379 6.10318201 3.80544091 9 6 C8.67 7.65 8.34 9.3 8 11 C3.18022675 10.52747321 0.00838111 9.70836561 -4 7 C-10.68661582 2.98803051 -19.99495023 3.15155455 -27.51171875 4.42578125 C-37.60618613 7.00882392 -45.66833835 13.07256654 -51 22 C-53.44431341 26.88862683 -54.79198026 31.70329805 -56 37 C-55.34 37 -54.68 37 -54 37 C-54 36.34 -54 35.68 -54 35 C-47.06257809 34.87829084 -40.2587689 35.34323221 -33.35546875 35.9765625 C-30.1031022 35.99927984 -28.59512938 35.89189288 -26 34 C-24.71745356 31.46229997 -24.71745356 31.46229997 -24 29 C-21.9375 28.5625 -21.9375 28.5625 -19 29 C-16.37017309 31.07017366 -14.06715867 33.36690452 -12 36 C-12 36.66 -12 37.32 -12 38 C-11.34 38 -10.68 38 -10 38 C-9.57488476 35.71171951 -9.57488476 35.71171951 -10 33 C-12.45061375 30.24359789 -15.14012671 27.93185035 -17.91015625 25.5 C-20 23 -20 23 -19.87109375 20.25 C-19 18 -19 18 -18 17 C-15.7265625 16.65625 -15.7265625 16.65625 -13 17 C-10.6484375 18.96875 -10.6484375 18.96875 -8.375 21.5 C-6.17894494 23.99540612 -6.17894494 23.99540612 -4 26 C-3.01 26 -2.02 26 -1 26 C-1.95632999 24.70684939 -2.91513851 23.41553147 -3.875 22.125 C-4.40867188 21.40570313 -4.94234375 20.68640625 -5.4921875 19.9453125 C-6.99873162 17.91747368 -6.99873162 17.91747368 -9 16 C-8.9765625 13.8359375 -8.9765625 13.8359375 -8.625 11.375 C-8.51414063 10.55773437 -8.40328125 9.74046875 -8.2890625 8.8984375 C-8.14597656 7.95871094 -8.14597656 7.95871094 -8 7 C-7.34 7.33 -6.68 7.66 -6 8 C-6.33 8.66 -6.66 9.32 -7 10 C-6.319375 9.855625 -5.63875 9.71125 -4.9375 9.5625 C-0.20146686 10.26786664 2.0813698 13.3742127 5 17 C9.5383621 23.6728429 12.87603042 29.94488468 14 38 C13.83978428 31.15441939 12.5166884 26.25098154 9.05859375 20.32421875 C7.85230376 17.67572227 7.72746727 15.87893668 8 13 C8.495 12.505 8.495 12.505 9 12 C15.26984973 12.2365981 15.26984973 12.2365981 18.05859375 15.15234375 C24.90834423 25.19956327 26.59819646 36.89552016 24.5234375 48.71484375 C21.93824647 58.57283122 16.8605525 66.37174528 9.875 73.625 C2.01498602 81.80753735 0.19252295 87.07477051 -1 99 C-13.21 99 -25.42 99 -38 99 C-38 85 -38 85 -37 79 C-37.73476562 79.06960937 -38.46953125 79.13921875 -39.2265625 79.2109375 C-44.4329456 78.81495907 -47.5582036 74.63661507 -51 71 C-60.89348401 59.07360831 -63.83774344 47.20349211 -63 32 C-61.81684158 24.58019298 -58.5132827 18.91129953 -54 13 C-53.51273438 12.35933594 -53.02546875 11.71867187 -52.5234375 11.05859375 C-46.26879382 3.31554556 -39.37493145 0.0453599 -30 -3 C-20.34953048 -6.21682317 -8.99061045 -4.22635534 0 0 Z " fill="#F7570F" transform="translate(144,74)"/>
<path d="M0 0 C3.13893957 1.83328379 6.10318201 3.80544091 9 6 C8.67 7.65 8.34 9.3 8 11 C3.18022675 10.52747321 0.00838111 9.70836561 -4 7 C-10.68661582 2.98803051 -19.99495023 3.15155455 -27.51171875 4.42578125 C-37.60618613 7.00882392 -45.66833835 13.07256654 -51 22 C-53.44431341 26.88862683 -54.79198026 31.70329805 -56 37 C-55.34 37 -54.68 37 -54 37 C-54 36.34 -54 35.68 -54 35 C-46.97711107 34.87679142 -40.05830862 35.31674306 -33.0625 35.87890625 C-32.051875 35.91886719 -31.04125 35.95882812 -30 36 C-29.67 35.67 -29.34 35.34 -29 35 C-23.10527845 34.0970886 -18.37106231 34.92132811 -13.48046875 38.38671875 C-12 40 -12 40 -11.25 43.8125 C-12.38854525 53.63704371 -18.95987936 59.62158561 -26 66 C-27.30710937 66.99 -27.30710937 66.99 -28.640625 68 C-31.12007042 70.10178155 -32.33481779 71.87907456 -33.8125 74.75 C-34.23144531 75.54921875 -34.65039062 76.3484375 -35.08203125 77.171875 C-35.38496094 77.77515625 -35.68789062 78.3784375 -36 79 C-39.35544336 79.25996261 -41.38733484 79.37112374 -44.30859375 77.6015625 C-54.0253877 68.58009876 -62.36610281 57.36178104 -63.203125 43.6796875 C-63.35395025 31.43770473 -61.52169517 22.85158612 -54 13 C-53.51273438 12.35933594 -53.02546875 11.71867187 -52.5234375 11.05859375 C-46.26879382 3.31554556 -39.37493145 0.0453599 -30 -3 C-20.34953048 -6.21682317 -8.99061045 -4.22635534 0 0 Z " fill="#1A7416" transform="translate(144,74)"/>
<path d="M0 0 C3.13893957 1.83328379 6.10318201 3.80544091 9 6 C8.67 7.65 8.34 9.3 8 11 C3.18022675 10.52747321 0.00838111 9.70836561 -4 7 C-10.68661582 2.98803051 -19.99495023 3.15155455 -27.51171875 4.42578125 C-37.59818194 7.00677575 -45.68077569 13.07004395 -51 22 C-55.71127763 30.95884684 -56.25707179 40.93138274 -53.828125 50.69921875 C-51.88706574 56.09206736 -48.88335763 61.14010056 -44.8046875 65.16796875 C-43 67 -43 67 -43 69 C-42.38125 69.28875 -41.7625 69.5775 -41.125 69.875 C-39 71 -39 71 -37 73 C-36.875 75.625 -36.875 75.625 -37 78 C-39.2265625 78.70703125 -39.2265625 78.70703125 -42 79 C-52.73555094 72.68385431 -58.94886268 60.6009121 -62.5859375 49.15625 C-64.70973772 38.09646017 -63.26111796 26.79754642 -57.1875 17.3125 C-56.14681474 15.8591292 -55.08476304 14.42077501 -54 13 C-53.51273438 12.35933594 -53.02546875 11.71867187 -52.5234375 11.05859375 C-46.26879382 3.31554556 -39.37493145 0.0453599 -30 -3 C-20.34953048 -6.21682317 -8.99061045 -4.22635534 0 0 Z " fill="#F65711" transform="translate(144,74)"/>
<path d="M0 0 C2.82222625 1.56790347 4.55313826 2.71424443 5.63671875 5.83203125 C6.26849191 9.38490612 6.05299131 11.81276404 5.0625 15.3125 C2.16299768 19.09063938 -0.47427745 19.66454089 -5 21 C-4.60167969 21.60585937 -4.20335937 22.21171875 -3.79296875 22.8359375 C-0.16572663 28.5724518 2.89387683 34.2265491 4 41 C3.67 41.99 3.34 42.98 3 44 C-2.35159022 38.69468166 -7.69782485 33.38401811 -13.03720856 28.06641579 C-15.51647743 25.59759911 -17.99757857 23.13068326 -20.48291016 20.66796875 C-23.33786451 17.83883425 -26.18475381 15.00170709 -29.03125 12.1640625 C-29.92807495 11.27756012 -30.8248999 10.39105774 -31.74890137 9.47769165 C-32.5697522 8.65699188 -33.39060303 7.83629211 -34.23632812 6.99072266 C-34.96468872 6.26680328 -35.69304932 5.54288391 -36.44348145 4.79702759 C-38 3 -38 3 -38 1 C-30.31861067 1.96642208 -21.65510756 4.34489244 -16 10 C-15.78085938 9.45730469 -15.56171875 8.91460937 -15.3359375 8.35546875 C-13.66686823 4.58988564 -12.53375574 2.38291172 -9.125 -0.0625 C-5.4778587 -1.15664239 -3.62051873 -1.1554847 0 0 Z " fill="#29406D" transform="translate(85,157)"/>
<path d="M0 0 C3.47596763 2.03649249 6.45877988 4.2754342 7.69140625 8.203125 C7.79324219 8.79609375 7.89507812 9.3890625 8 10 C8.61746094 9.60167969 9.23492187 9.20335937 9.87109375 8.79296875 C15.24374569 5.4319947 20.66646562 2.09666257 27 1 C28.32 1.33 29.64 1.66 31 2 C17.14 15.86 3.28 29.72 -11 44 C-12.37264715 41.2547057 -11.63703337 39.38127334 -10.87890625 36.5078125 C-9.1036736 31.44248202 -6.50892167 26.73381448 -4 22 C-3.34 22 -2.68 22 -2 22 C-2 21.34 -2 20.68 -2 20 C-2.886875 20.103125 -3.77375 20.20625 -4.6875 20.3125 C-9.02481732 19.90331912 -10.23526717 18.23868703 -13 15 C-13.33 14.67 -13.66 14.34 -14 14 C-14.58968059 6.92383292 -14.58968059 6.92383292 -12.125 3.0625 C-8.52367944 -0.43289937 -4.87160454 -0.93752102 0 0 Z " fill="#2B416E" transform="translate(174,156)"/>
<path d="M0 0 C0.66 0.33 1.32 0.66 2 1 C2 1.66 2 2.32 2 3 C2.66 3 3.32 3 4 3 C5.33895632 4.66215268 6.67130142 6.32963607 8 8 C8.9075 8.721875 9.815 9.44375 10.75 10.1875 C11.4925 10.785625 12.235 11.38375 13 12 C13 12.66 13 13.32 13 14 C13.99 14.33 14.98 14.66 16 15 C16 15.66 16 16.32 16 17 C16.66 17 17.32 17 18 17 C19.33895632 18.66215268 20.67130142 20.32963607 22 22 C23.64295195 23.36244796 25.30824337 24.69864875 27 26 C28.8125 27.625 28.8125 27.625 30 29 C30 29.66 30 30.32 30 31 C30.99 31.33 31.98 31.66 33 32 C33 32.66 33 33.32 33 34 C33.66 34 34.32 34 35 34 C36.34919532 35.65385233 37.68133728 37.321702 39 39 C39.99 39.66 40.98 40.32 42 41 C42 41.66 42 42.32 42 43 C37.63480957 42.41363114 33.92967417 41.33605176 29.875 39.625 C28.86179688 39.20476562 27.84859375 38.78453125 26.8046875 38.3515625 C24.24551332 37.11831143 22.19114426 35.7927544 20 34 C19.82984375 34.54269531 19.6596875 35.08539063 19.484375 35.64453125 C18.41271752 38.80820094 17.4810019 41.42992367 15.3125 44 C11.87484567 45.48655323 8.63774988 45.67125147 5 45 C2.1899654 43.20636089 0.49059532 41.98119065 -1 39 C-1.6587959 34.20961264 -1.76016922 31.02079867 1.1875 27.0625 C3.77751889 25.16315282 5.94957551 23.95870484 9 23 C8.2575 21.948125 7.515 20.89625 6.75 19.8125 C3.24388903 14.24867148 0 6.66591101 0 0 Z " fill="#283F6E" transform="translate(162,41)"/>
<path d="M0 0 C0.33 0 0.66 0 1 0 C1 19.47 1 38.94 1 59 C-5.43175088 52.56824912 -7.11540407 45.69484033 -9 37 C-9.86625 37.73283203 -9.86625 37.73283203 -10.75 38.48046875 C-14.14573198 40.77376691 -17.03837932 40.44925595 -21 40 C-24.26844342 39.11663691 -24.89133104 38.16112984 -26.8125 35.3125 C-28.24470452 31.31740319 -28.0589409 29.08448632 -27 25 C-25.17375749 21.84558112 -24.51414502 21.17138167 -21 20 C-13.11765392 19.49953358 -13.11765392 19.49953358 -9 23 C-8.92523438 22.41734375 -8.85046875 21.8346875 -8.7734375 21.234375 C-7.63901771 14.16093397 -5.21917242 5.21917242 0 0 Z " fill="#263E6F" transform="translate(206,91)"/>
<path d="M0 0 C5.05431613 5.05431613 8.34223569 11.13579234 9.31640625 18.33984375 C9.3125 20.25 9.3125 20.25 9 23 C9.66 22.505 10.32 22.01 11 21.5 C14.82825101 19.58587449 17.79485945 19.37008016 22 20 C24.87898475 21.2517325 26.44740029 22.29669128 28.375 24.75 C29.31840286 28.14625031 28.83569266 30.59753701 28 34 C26.17660948 36.70567626 24.92542564 38.53728718 22 40 C14.11789773 40.50852273 14.11789773 40.50852273 10 37 C9.76925781 37.9178125 9.53851563 38.835625 9.30078125 39.78125 C7.40319264 46.92158344 5.44895432 52.98789957 1 59 C0.67 59 0.34 59 0 59 C0 39.53 0 20.06 0 0 Z " fill="#253D6F" transform="translate(43,91)"/>
<path d="M0 0 C1.97082378 5.91247135 -2.5247931 14.02139752 -5.2265625 19.4765625 C-6.10474418 21.01180098 -7.04358336 22.51224079 -8 24 C-6.906875 24.2475 -5.81375 24.495 -4.6875 24.75 C-0.76161759 26.0808076 -0.0102223 26.56336248 2 30 C2.83700564 33.99037574 3.10102846 38.18108485 0.93359375 41.76171875 C-1.74573894 44.30964003 -4.46808727 45.3521793 -8.0625 45.625 C-12.81508987 44.87062066 -14.16727354 43.83251227 -17 40 C-18.3125 36.6875 -18.3125 36.6875 -19 34 C-19.44988281 34.31453125 -19.89976563 34.6290625 -20.36328125 34.953125 C-25.8364572 38.59459677 -31.59337205 41.40610549 -38 43 C-38.99 42.67 -39.98 42.34 -41 42 C-40.51584625 41.51806686 -40.0316925 41.03613373 -39.53286743 40.53959656 C-34.50132063 35.53014675 -29.47327626 30.5172014 -24.44726562 25.50219727 C-22.5702357 23.6302009 -20.69230988 21.75910239 -18.81347656 19.88891602 C-16.11548477 17.20303243 -13.42071484 14.5139529 -10.7265625 11.82421875 C-9.88380768 10.98662521 -9.04105286 10.14903168 -8.17276001 9.28605652 C-7.39210175 8.50547379 -6.61144348 7.72489105 -5.80712891 6.9206543 C-5.11873932 6.23448532 -4.43034973 5.54831635 -3.72109985 4.84135437 C-1.82267657 2.91051452 -1.82267657 2.91051452 0 0 Z " fill="#253D6F" transform="translate(87,41)"/>
<path d="M0 0 C19.14 0 38.28 0 58 0 C51.87769365 6.12230635 44.25221447 7.99762443 36 10 C36.72703125 10.86818359 36.72703125 10.86818359 37.46875 11.75390625 C39.33751939 14.49508584 39.54014041 16.74220785 39.4296875 20.03125 C38.70086045 23.37060301 36.59993286 24.95719561 34 27 C30.76344166 28.61827917 27.49863286 28.56192191 24 28 C21 26.125 21 26.125 19 23 C18.24540363 18.01172082 18.16594933 14.251076 21 10 C20.09121094 9.76216797 20.09121094 9.76216797 19.1640625 9.51953125 C12.75906699 7.73598635 6.69372564 5.48525024 1 2 C0.67 1.34 0.34 0.68 0 0 Z " fill="#253D6F" transform="translate(96,39)"/>
<path d="M0 0 C0.66 0.33 1.32 0.66 2 1 C1.67 1.66 1.34 2.32 1 3 C1.680625 2.855625 2.36125 2.71125 3.0625 2.5625 C7.79853314 3.26786664 10.0813698 6.3742127 13 10 C18.42600932 17.97796805 22.54064607 26.20919915 23 36 C21.76987835 42.45582642 18.86017913 46.86671993 13.78125 50.94140625 C11.86616027 52.07954072 10.1773214 52.57504034 8 53 C5.02494377 47.65679901 5.39468192 42.64703961 6.72265625 36.83984375 C8.68766665 30.03788468 11.22365589 23.98952938 15 18 C11.04 18.495 11.04 18.495 7 19 C6.59007812 18.44570312 6.18015625 17.89140625 5.7578125 17.3203125 C5.21898437 16.59585938 4.68015625 15.87140625 4.125 15.125 C3.32449219 14.04605469 3.32449219 14.04605469 2.5078125 12.9453125 C1.00126838 10.91747368 1.00126838 10.91747368 -1 9 C-0.9765625 6.8359375 -0.9765625 6.8359375 -0.625 4.375 C-0.51414063 3.55773437 -0.40328125 2.74046875 -0.2890625 1.8984375 C-0.19367188 1.27195312 -0.09828125 0.64546875 0 0 Z " fill="#FB9D2B" transform="translate(136,81)"/>
<path d="M0 0 C0.79289932 -0.0033284 1.58579865 -0.0066568 2.40272522 -0.01008606 C4.08317483 -0.01515851 5.76363454 -0.01749429 7.4440918 -0.01733398 C10.02083884 -0.01951911 12.59715701 -0.03766734 15.17382812 -0.05664062 C16.80338395 -0.0595747 18.43294181 -0.0615594 20.0625 -0.0625 C20.83649643 -0.06968552 21.61049286 -0.07687103 22.40794373 -0.08427429 C27.86883372 -0.06085378 27.86883372 -0.06085378 30.09765625 2.16796875 C29.56194196 5.70368304 29.56194196 5.70368304 28.09765625 7.16796875 C25.45479351 7.28133501 22.83904169 7.33214636 20.1953125 7.3359375 C19.40241318 7.3392659 18.60951385 7.3425943 17.79258728 7.34602356 C16.11213767 7.35109601 14.43167796 7.35343179 12.7512207 7.35327148 C10.17447366 7.35545661 7.59815549 7.37360484 5.02148438 7.39257812 C3.39192855 7.3955122 1.76237069 7.3974969 0.1328125 7.3984375 C-1.02818214 7.40921577 -1.02818214 7.40921577 -2.21263123 7.42021179 C-7.67352122 7.39679128 -7.67352122 7.39679128 -9.90234375 5.16796875 C-8.95289659 -1.09838249 -5.49677699 0.00788245 0 0 Z " fill="#F96526" transform="translate(114.90234375,182.83203125)"/>
<path d="M0 0 C12.54 0 25.08 0 38 0 C38.495 1.98 38.495 1.98 39 4 C37 6 37 6 33.46826172 6.22705078 C31.95536669 6.22673363 30.44244912 6.21540633 28.9296875 6.1953125 C28.13345978 6.1924826 27.33723206 6.18965271 26.51687622 6.18673706 C23.96943237 6.1755264 21.42233789 6.15042062 18.875 6.125 C17.14974465 6.11497133 15.42448381 6.10584528 13.69921875 6.09765625 C9.46601086 6.07558422 5.2330647 6.04104867 1 6 C-0.0625 4.125 -0.0625 4.125 -1 2 C-0.67 1.34 -0.34 0.68 0 0 Z " fill="#F8540E" transform="translate(106,175)"/>
<path d="M0 0 C1.08308441 -0.00021904 1.08308441 -0.00021904 2.18804932 -0.0004425 C4.57966087 0.00025532 6.97119498 0.00804164 9.36279297 0.01586914 C11.01903236 0.01773378 12.67527231 0.01915747 14.33151245 0.02015686 C18.69465655 0.0239784 23.05776747 0.03380561 27.42089844 0.04486084 C31.87157746 0.05508275 36.32226184 0.05965615 40.77294922 0.06469727 C49.50864155 0.07542819 58.24430688 0.09250027 66.97998047 0.11352539 C66.97998047 0.44352539 66.97998047 0.77352539 66.97998047 1.11352539 C66.1786821 1.01280228 65.37738373 0.91207916 64.55180359 0.80830383 C54.27303701 -0.41525859 44.01019479 -1.17861814 33.66748047 -1.57397461 C32.84409809 -1.60575428 32.02071571 -1.63753395 31.17238235 -1.67027664 C9.18360339 -2.38437564 -7.44685593 0.04335332 -24.06552696 15.21765709 C-28.2726805 19.18906192 -32.2179073 23.37296198 -36.08251953 27.67602539 C-36.90355856 28.58951437 -36.90355856 28.58951437 -37.74118423 29.52145767 C-44.51668238 37.12017962 -50.91664604 44.96364136 -57.02001953 53.11352539 C-57.51501953 51.62852539 -57.51501953 51.62852539 -58.02001953 50.11352539 C-54.90309044 46.93882601 -51.77518407 43.77517147 -48.64501953 40.61352539 C-47.75556641 39.70731445 -46.86611328 38.80110352 -45.94970703 37.86743164 C-45.09892578 37.01020508 -44.24814453 36.15297852 -43.37158203 35.26977539 C-42.19329834 34.07578125 -42.19329834 34.07578125 -40.99121094 32.85766602 C-39.02001953 31.11352539 -39.02001953 31.11352539 -37.02001953 31.11352539 C-36.75189453 30.47415039 -36.48376953 29.83477539 -36.20751953 29.17602539 C-35.02001953 27.11352539 -35.02001953 27.11352539 -32.02001953 26.11352539 C-31.34367673 24.78507417 -30.67906205 23.45064363 -30.02001953 22.11352539 C-28.49768168 20.417001 -26.91692579 18.77221285 -25.30126953 17.16430664 C-24.36927734 16.23424805 -23.43728516 15.30418945 -22.47705078 14.34594727 C-21.99187988 13.86697998 -21.50670898 13.3880127 -21.00683594 12.89453125 C-19.51972999 11.42573941 -18.04083995 9.94904435 -16.56298828 8.47094727 C-8.02529967 -0.0136022 -8.02529967 -0.0136022 0 0 Z " fill="#F9B61C" transform="translate(95.02001953125,31.886474609375)"/>
<path d="M0 0 C0.99 0.33 1.98 0.66 3 1 C3 1.66 3 2.32 3 3 C1.68 3 0.36 3 -1 3 C-1 3.66 -1 4.32 -1 5 C0.32 5 1.64 5 3 5 C3.38133299 6.9914056 3.71325582 8.99279077 4 11 C3.67 11.33 3.34 11.66 3 12 C3.66 12.33 4.32 12.66 5 13 C4.67 14.98 4.34 16.96 4 19 C5.32 19 6.64 19 8 19 C8 19.99 8 20.98 8 22 C8.66 22.33 9.32 22.66 10 23 C13 25 13 25 13.6875 27.125 C13.790625 27.74375 13.89375 28.3625 14 29 C12.35 29.99 10.7 30.98 9 32 C7.8906274 30.46207524 6.78775663 28.91945961 5.6875 27.375 C5.07261719 26.51648438 4.45773438 25.65796875 3.82421875 24.7734375 C0.22257172 19.29770004 -1.37638143 15.22071374 -1.6875 8.625 C-1.75324219 7.37976563 -1.81898437 6.13453125 -1.88671875 4.8515625 C-1.92410156 3.91054687 -1.96148437 2.96953125 -2 2 C-1.34 2 -0.68 2 0 2 C0 1.34 0 0.68 0 0 Z " fill="#508711" transform="translate(90,109)"/>
<path d="M0 0 C3.12492251 -0.05791844 6.24970766 -0.09356746 9.375 -0.125 C10.26445313 -0.14175781 11.15390625 -0.15851563 12.0703125 -0.17578125 C12.92109375 -0.18222656 13.771875 -0.18867188 14.6484375 -0.1953125 C15.82672119 -0.21102295 15.82672119 -0.21102295 17.02880859 -0.22705078 C19 0 19 0 21 2 C20.46428571 5.53571429 20.46428571 5.53571429 19 7 C16.00981839 7.12667764 13.05305892 7.18520838 10.0625 7.1875 C9.22525391 7.19974609 8.38800781 7.21199219 7.52539062 7.22460938 C6.32366211 7.22750977 6.32366211 7.22750977 5.09765625 7.23046875 C4.36039307 7.23457764 3.62312988 7.23868652 2.86352539 7.24291992 C1 7 1 7 -1 5 C-0.625 2.375 -0.625 2.375 0 0 Z " fill="#F96323" transform="translate(115,191)"/>
<path d="M0 0 C3.7705134 0.47333121 4.99461765 2.09682792 7.55078125 4.84375 C8.34097656 5.6790625 9.13117188 6.514375 9.9453125 7.375 C10.53699219 8.0246875 11.12867188 8.674375 11.73828125 9.34375 C10.53446677 11.83736571 9.28399403 14.02518083 7.73828125 16.34375 C4.41614655 14.8814108 2.04514142 13.03568394 -0.57421875 10.53125 C-1.65123047 9.53158203 -1.65123047 9.53158203 -2.75 8.51171875 C-4.26171875 6.34375 -4.26171875 6.34375 -4.0546875 3.64453125 C-2.95329308 0.44885974 -2.95329308 0.44885974 0 0 Z " fill="#FB9D2E" transform="translate(128.26171875,90.65625)"/>
<path d="M0 0 C3.61941735 1.50239966 6.7321794 2.82145293 10 5 C12.50896686 5.45601261 12.50896686 5.45601261 15.1875 5.625 C16.08855469 5.69976562 16.98960937 5.77453125 17.91796875 5.8515625 C18.60503906 5.90054688 19.29210937 5.94953125 20 6 C18.02 6.99 18.02 6.99 16 8 C16.42675921 13.12111054 17.68901812 16.64078433 20.078125 21.16796875 C22.59050254 26.16078682 22.10685949 31.5501658 22 37 C20.58574859 34.35773605 19.85741912 32.36386992 19.1875 29.375 C17.00147603 20.38059602 12.162169 11.95490945 5 6 C2.35769323 5.20834597 2.35769323 5.20834597 0 5 C-0.5625 3.0625 -0.5625 3.0625 -1 1 C-0.67 0.67 -0.34 0.34 0 0 Z " fill="#FDEEE6" transform="translate(137,79)"/>
<path d="M0 0 C2.0625 -0.4375 2.0625 -0.4375 5 0 C7.62982691 2.07017366 9.93284133 4.36690452 12 7 C12 7.66 12 8.32 12 9 C12.66 9.33 13.32 9.66 14 10 C13.01 10.33 12.02 10.66 11 11 C9.27031735 10.02093435 7.54304269 9.03586677 5.8515625 7.9921875 C3.3120054 6.63132779 0.84434819 6.27749738 -2 6 C-1.34 4.02 -0.68 2.04 0 0 Z " fill="#F49E30" transform="translate(120,103)"/>
<path d="M0 0 C5.78591511 -0.10477512 11.29309366 0.00749455 17 1 C16.01 1.495 16.01 1.495 15 2 C15 3.32 15 4.64 15 6 C9.33333333 6 3.66666667 6 -2 6 C-2 4.68 -2 3.36 -2 2 C-0.7934375 2.0309375 -0.7934375 2.0309375 0.4375 2.0625 C2.93354885 2.29633621 2.93354885 2.29633621 4 1 C2.68 0.67 1.36 0.34 0 0 Z " fill="#FAE08A" transform="translate(119,77)"/>
<path d="M0 0 C0.99 0.33 1.98 0.66 3 1 C3 1.66 3 2.32 3 3 C1.68 3 0.36 3 -1 3 C-1 3.66 -1 4.32 -1 5 C0.32 5 1.64 5 3 5 C3.38133299 6.9914056 3.71325582 8.99279077 4 11 C3.67 11.33 3.34 11.66 3 12 C3.66 12.33 4.32 12.66 5 13 C4.67 14.65 4.34 16.3 4 18 C2.68 18 1.36 18 0 18 C-1.38529821 12.54538831 -2.2396943 7.63281599 -2 2 C-1.34 2 -0.68 2 0 2 C0 1.34 0 0.68 0 0 Z " fill="#749514" transform="translate(90,109)"/>
<path d="M0 0 C0 1.32 0 2.64 0 4 C-1.32 4 -2.64 4 -4 4 C-4 4.66 -4 5.32 -4 6 C-4.969375 6.28875 -5.93875 6.5775 -6.9375 6.875 C-10.10664203 7.64214682 -10.10664203 7.64214682 -11 10 C-12.32 8.68 -13.64 7.36 -15 6 C-5.77448747 -0.88838269 -5.77448747 -0.88838269 0 0 Z " fill="#FBE6A5" transform="translate(115,80)"/>
<path d="M0 0 C1.65 0.33 3.3 0.66 5 1 C5 1.99 5 2.98 5 4 C4.01 4 3.02 4 2 4 C2.99 5.485 2.99 5.485 4 7 C3.67 7.66 3.34 8.32 3 9 C4.32 9.33 5.64 9.66 7 10 C4.36 10 1.72 10 -1 10 C-1 10.66 -1 11.32 -1 12 C-1.66 12 -2.32 12 -3 12 C-2.69106068 10.3743193 -2.3777305 8.74947252 -2.0625 7.125 C-1.88847656 6.22007813 -1.71445313 5.31515625 -1.53515625 4.3828125 C-1 2 -1 2 0 0 Z " fill="#F3E09F" transform="translate(91,99)"/>
<path d="M0 0 C4.4426634 6.6639951 5.3754415 13.11572856 5 21 C3.2844101 17.77612065 2.34415872 14.66049933 1.51171875 11.09765625 C1.01882599 9.07717217 0.43006029 7.11031126 -0.1875 5.125 C-1 2 -1 2 0 0 Z " fill="#FCDAC1" transform="translate(154,95)"/>
<path d="M0 0 C2.4375 1.3125 2.4375 1.3125 3.25 3.4375 C3.311875 4.05625 3.37375 4.675 3.4375 5.3125 C0.9625 6.7975 0.9625 6.7975 -1.5625 8.3125 C-2.625 6.5 -2.625 6.5 -3.5625 4.3125 C-3.2325 3.3225 -2.9025 2.3325 -2.5625 1.3125 C-3.2225 0.9825 -3.8825 0.6525 -4.5625 0.3125 C-2.5625 -0.6875 -2.5625 -0.6875 0 0 Z " fill="#76940F" transform="translate(100.5625,132.6875)"/>
<path d="M0 0 C3.2102122 3.2102122 2.98974759 6.37460314 3.0625 10.8125 C3.041875 11.864375 3.02125 12.91625 3 14 C2.33333333 12.66666667 1.66666667 11.33333333 1 10 C0.62875 9.360625 0.2575 8.72125 -0.125 8.0625 C-1.18450524 5.56509478 -1.21790172 3.68745456 -1 1 C-0.67 0.67 -0.34 0.34 0 0 Z " fill="#FCEAD6" transform="translate(147,107)"/>
<path d="M0 0 C0.33 0.66 0.66 1.32 1 2 C1.99 2.33 2.98 2.66 4 3 C3.67 3.66 3.34 4.32 3 5 C1.68 4.67 0.36 4.34 -1 4 C-0.34 5.32 0.32 6.64 1 8 C0.34 8 -0.32 8 -1 8 C-1.33 8.66 -1.66 9.32 -2 10 C-2.33 9.34 -2.66 8.68 -3 8 C-2.67 7.34 -2.34 6.68 -2 6 C-2.66 5.67 -3.32 5.34 -4 5 C-2.68 3.35 -1.36 1.7 0 0 Z " fill="#FBDC79" transform="translate(99,87)"/>
<path d="M0 0 C1.98 0 3.96 0 6 0 C5.67 1.65 5.34 3.3 5 5 C3.68 5 2.36 5 1 5 C0.67 3.35 0.34 1.7 0 0 Z " fill="#85950E" transform="translate(89,122)"/>
<path d="M0 0 C1.22589844 0.01353516 1.22589844 0.01353516 2.4765625 0.02734375 C3.41628906 0.04474609 3.41628906 0.04474609 4.375 0.0625 C4.045 0.7225 3.715 1.3825 3.375 2.0625 C2.715 1.7325 2.055 1.4025 1.375 1.0625 C1.045 2.0525 0.715 3.0425 0.375 4.0625 C0.375 3.0725 0.375 2.0825 0.375 1.0625 C-0.285 1.0625 -0.945 1.0625 -1.625 1.0625 C-1.955 2.7125 -2.285 4.3625 -2.625 6.0625 C-2.728125 5.423125 -2.83125 4.78375 -2.9375 4.125 C-3.164375 3.444375 -3.39125 2.76375 -3.625 2.0625 C-4.615 1.7325 -5.605 1.4025 -6.625 1.0625 C-4.21954362 -0.14022819 -2.67503047 -0.03821472 0 0 Z " fill="#FCF0DF" transform="translate(118.625,77.9375)"/>
<path d="M0 0 C1.98 0.66 3.96 1.32 6 2 C5.67 2.99 5.34 3.98 5 5 C3.35 5 1.7 5 0 5 C-0.5625 3.0625 -0.5625 3.0625 -1 1 C-0.67 0.67 -0.34 0.34 0 0 Z " fill="#FBEAD3" transform="translate(137,79)"/>
<path d="M0 0 C1.98 0 3.96 0 6 0 C6 1.32 6 2.64 6 4 C4.68 4 3.36 4 2 4 C2 3.01 2 2.02 2 1 C1.34 0.67 0.68 0.34 0 0 Z " fill="#F9E190" transform="translate(109,80)"/>
</svg>
